PathFileType	4	(X/Y/Z)	C:\Users\WrightLab\Desktop\Jo\P3_12.trc
DataRate	CameraRate	NumFrames	NumMarkers	Units	OrigDataRate	OrigDataStartFrame	OrigNumFrames
100.00	100.00	       8	19	mm	100.00	297	       593
Frame#	Time	Headset_Front			Headset_Back			Headset_Left			Headset_Right			Left_Shoulder			Right_Shoulder			Sternum			C7			Left Elbow			Right Elbow			Left Wrist			Right Wrist			Left ASIS			Right ASIS			S2			Left Knee			Right Knee			Left Ankle			Right Ankle			
		X1	Y1	Z1	X2	Y2	Z2	X3	Y3	Z3	X4	Y4	Z4	X5	Y5	Z5	X6	Y6	Z6	X7	Y7	Z7	X8	Y8	Z8	X9	Y9	Z9	X10	Y10	Z10	X11	Y11	Z11	X12	Y12	Z12	X13	Y13	Z13	X14	Y14	Z14	X15	Y15	Z15	X16	Y16	Z16	X17	Y17	Z17	X18	Y18	Z18	X19	Y19	Z19	

297	2.960	-568.02838	1420.19897	-62.55529	-576.97211	1608.18774	175.03941	-681.97290	1530.88074	75.35542	-465.41040	1481.98157	31.46042	-729.10791	1311.24646	262.28494	-401.17578	1327.72998	126.27348	-615.76892	1203.47241	73.05347	-545.20001	1375.13843	234.42987	-756.27570	977.85913	328.21655	-267.59894	1017.64661	30.03159	-781.53772	781.15906	257.90225	-243.07568	907.93024	-168.85480	-691.80884	852.28754	119.51856				-486.49023	918.53906	265.87106	-745.87860	450.38956	90.55025	-433.81006	404.46579	115.15027	-754.26947	116.90936	114.82314	-305.21487	169.36244	328.44510	
298	2.970	-571.61829	1420.52795	-70.89720	-582.69086	1609.36035	165.91521	-687.75861	1531.57031	64.62209	-470.17282	1481.74915	24.61975	-736.29706	1313.30640	252.35550	-407.09879	1329.27124	119.68780	-621.13409	1204.80176	64.06745	-552.07416	1375.89465	226.19038	-764.21472	979.51746	318.96185	-274.38022	1018.04608	27.29740	-789.87738	783.58020	247.59494	-246.11868	906.76630	-170.27861	-697.09808	854.82904	110.53632	-465.52939	847.76501	12.70870	-491.78812	919.98834	257.94901	-749.48584	450.00790	88.21832	-443.57065	403.36642	99.03188	-755.79474	115.94106	114.15228	-313.04947	176.15460	320.19635	
299	2.980	-574.64697	1420.59155	-79.29731	-588.12482	1610.70508	156.02357	-691.15625	1532.14050	56.01715	-473.93500	1482.30872	15.65489	-742.82635	1314.67419	241.96703	-412.51477	1330.78369	113.67497	-626.14447	1206.29614	55.59404	-559.43097	1378.21667	219.09213	-772.70728	981.79199	308.91403	-279.40396	1018.81744	25.44785	-797.73846	785.49677	237.67271	-249.26836	906.10144	-172.38622	-702.03540	857.08765	103.30861	-470.47983	848.06873	5.62369	-497.06680	920.98999	251.30038	-752.89935	450.28571	86.05868	-453.42575	403.08807	83.31370	-756.52271	115.70689	113.62473	-322.20987	183.62973	311.48114	
300	2.990	-577.89331	1420.52881	-87.17012	-592.95477	1611.00488	147.16992	-695.64740	1533.09216	45.77770	-478.51068	1482.73804	7.77133	-749.71509	1316.11816	232.11726	-417.83664	1332.33386	107.49232	-630.85461	1207.10364	47.25822	-564.78961	1378.46814	210.80838	-780.81262	983.52515	299.59277	-285.40726	1019.46570	22.22507	-806.19720	788.54034	225.75475	-252.71179	905.69470	-174.59547	-707.13434	858.72711	95.20490	-474.30124	849.02557	0.45147	-503.35635	922.71680	244.70004	-755.75977	449.25723	84.43847	-462.18228	403.66742	67.36786	-757.12616	115.54257	113.52111	-330.86719	192.45641	301.63800	
301	3.000	-580.95184	1420.57300	-95.74924	-600.05957	1612.12830	136.86539	-699.94855	1533.21838	35.54292	-482.34048	1482.87524	0.84034	-756.46643	1317.87610	221.47969	-422.57849	1333.43274	100.95789	-635.10254	1208.31787	38.91729	-572.22766	1380.78259	203.42854	-788.92786	985.56897	290.29211	-290.74091	1019.55219	19.95981	-814.67474	790.06653	215.61919	-255.20703	904.69092	-175.82018	-711.84320	860.24921	87.00844	-477.79514	849.74121	-5.03871	-509.43188	923.68823	238.08009	-757.92871	448.47803	81.95349	-471.21280	404.25076	51.92088	-758.00232	115.47012	113.24088	-340.50690	200.24408	292.45395	
302	3.010	-583.78180	1420.13916	-103.97214	-603.70392	1613.08289	128.47879	-704.39246	1534.51587	24.81081	-485.78839	1483.17310	-6.73265	-762.88770	1319.15942	210.19772	-427.33759	1334.56311	95.21301	-639.16949	1209.49622	30.63882	-577.24243	1381.05017	194.82112	-797.65259	987.07153	280.38260	-294.93768	1019.41351	16.95774	-823.09283	792.47510	204.70697	-258.17276	903.55951	-177.54579	-716.19440	860.88702	79.64765	-481.78101	849.65173	-11.01748	-515.58539	924.78271	231.93311	-760.56226	448.38492	78.85244	-479.24814	405.88312	36.01679	-757.70093	115.07157	113.48037	-350.34793	208.20326	281.70517	
303	3.020	-586.51929	1419.84241	-112.69006	-609.52338	1614.24573	118.16149	-708.01941	1534.29675	15.79269	-489.71100	1483.38062	-14.23218	-768.61139	1320.17554	200.82074	-432.13382	1335.64636	89.31335	-642.58344	1210.24194	22.27828	-583.32404	1382.42700	186.95901	-806.40704	989.15002	270.91925	-298.96091	1019.25964	13.79700	-831.29132	794.34082	194.62370	-260.65262	902.61432	-179.21091	-720.19653	861.42371	71.35167	-484.33902	850.54608	-15.01562	-521.75458	925.88135	225.62602	-762.56805	448.21533	76.30412	-487.21884	407.79941	19.64427	-757.92047	114.58427	112.33044	-360.79852	215.71103	271.07568	
304	3.030	-588.83234	1419.69897	-121.24172	-613.45880	1614.92908	108.69789	-711.91821	1534.79846	5.02910	-492.94644	1483.08044	-22.02521	-774.87793	1321.45056	190.65773	-436.61307	1336.54797	83.16946	-646.31689	1211.14758	13.50058	-589.12115	1384.00964	179.14444	-814.60388	990.53418	260.06052	-304.44095	1019.09076	10.88017	-840.35773	796.22034	184.37489	-261.96210	902.28540	-181.22760	-724.07281	861.15302	64.21545	-487.80356	852.89905	-26.63967	-527.89050	927.14124	219.68755	-764.16046	447.37286	73.82390	-494.29025	410.83780	4.95935	-757.79272	114.70767	112.13785	-371.71420	221.26212	259.78265	
